<?xml version="1.0" encoding="iso-8859-1"?>
<!-- Generator: Adobe Illustrator 21.0.0, SVG Export Plug-In . SVG Version: 6.00 Build 0)  -->
<svg xmlns="http://www.w3.org/2000/svg" xmlns:xlink="http://www.w3.org/1999/xlink" version="1.1" id="Capa_1" x="0px" y="0px" viewBox="0 0 511.381 511.381" style="enable-background:new 0 0 511.381 511.381;" xml:space="preserve" width="512" height="512">
<g>
	<path d="M291.444,131.594c0-19.715-16.039-35.754-35.754-35.754s-35.754,16.039-35.754,35.754   c0,19.715,16.039,35.754,35.754,35.754S291.444,151.309,291.444,131.594z M234.937,131.594c0-11.443,9.31-20.754,20.754-20.754   c11.444,0,20.754,9.311,20.754,20.754c0,11.443-9.31,20.754-20.754,20.754C244.247,152.348,234.937,143.037,234.937,131.594z"/>
	<path d="M291.444,379.784c0-19.715-16.039-35.754-35.754-35.754s-35.754,16.039-35.754,35.754   c0,19.715,16.039,35.754,35.754,35.754S291.444,399.499,291.444,379.784z M234.937,379.784c0-11.443,9.31-20.754,20.754-20.754   c11.444,0,20.754,9.311,20.754,20.754c0,11.443-9.31,20.754-20.754,20.754C244.247,400.538,234.937,391.228,234.937,379.784z"/>
	<path d="M440.404,78.896C394.781,31.247,333.446,3.33,267.698,0.288C263.707,0.148,259.683,0,255.69,0   c-42.384,0-84.37,10.586-121.419,30.614c-3.644,1.97-5.001,6.521-3.031,10.164c1.97,3.643,6.52,5.001,10.164,3.031   C176.244,24.976,215.729,15.015,255.601,15l5.653,0.137c62.268,2.921,111.03,54.06,111.03,116.457   c0,64.289-52.304,116.593-116.593,116.593c-0.085,0-0.169,0.001-0.252,0.004c-27.126,0.052-53.154,8.287-75.284,23.826   c-21.696,15.234-38.124,36.332-47.507,61.015c-1.472,3.872,0.474,8.204,4.346,9.676c0.877,0.333,1.778,0.491,2.663,0.491   c3.024,0,5.874-1.842,7.012-4.837c8.314-21.868,22.874-40.564,42.106-54.068c19.661-13.806,42.801-21.103,66.917-21.103   c0.085,0,0.169-0.001,0.252-0.004c72.445-0.137,131.341-59.116,131.341-131.593c0-40.893-18.562-77.499-47.887-101.657   c33.801,12.515,64.607,32.631,90.173,59.333c43.084,44.997,66.811,104.1,66.811,166.42c0,3.225-0.064,6.49-0.192,9.706   c-0.164,4.139,3.059,7.627,7.197,7.791c0.101,0.004,0.202,0.006,0.302,0.006c4.005,0,7.329-3.165,7.489-7.203   c0.135-3.413,0.204-6.878,0.204-10.3C511.381,189.486,486.174,126.699,440.404,78.896z"/>
	<path d="M501.888,288.182c-4.086-0.656-7.939,2.119-8.6,6.208c-9.007,55.739-37.679,106.829-80.734,143.858   c-43.511,37.421-99.121,58.065-156.578,58.13h-0.285c-64.29,0-116.593-52.304-116.593-116.594c0-4.674,0.279-9.378,0.829-13.98   c0.492-4.112-2.444-7.845-6.557-8.337c-4.117-0.489-7.845,2.445-8.336,6.558c-0.621,5.191-0.935,10.493-0.935,15.76   c0,41.041,18.886,77.756,48.423,101.907c-32.318-11.874-61.952-30.735-87.024-55.807C40.036,380.424,15,319.981,15,255.69   c0-39.124,9.597-77.96,27.753-112.311c17.582-33.264,43.134-62.373,73.894-84.181c3.379-2.396,4.176-7.077,1.78-10.456   c-2.396-3.38-7.077-4.176-10.456-1.78c-32.667,23.16-59.806,54.076-78.48,89.407C10.198,172.872,0,214.133,0,255.69   c0,68.298,26.597,132.507,74.89,180.801c48.294,48.293,112.503,74.89,180.8,74.89l0.285-0.003h0.008   c61.047-0.069,120.125-22.002,166.351-61.757c45.734-39.333,76.191-93.612,85.761-152.839   C508.756,292.693,505.977,288.843,501.888,288.182z"/>
</g>















</svg>
